<svg width="252" height="24" viewBox="0 0 252 24" fill="none" xmlns="http://www.w3.org/2000/svg">
<path d="M9 3V18H12V3H9ZM12 5L16 18L19 17L15 4L12 5ZM5 5V18H8V5H5ZM3 19V21H21V19H3Z" fill="black"/>
<path d="M36.324 18L40.932 5.22H44.568L49.176 18H45.954L45.126 15.588H40.374L39.528 18H36.324ZM41.22 13.104H44.28L42.768 8.604L41.22 13.104ZM57.2958 18.288C56.1198 18.288 55.0698 18.024 54.1458 17.496C53.2338 16.968 52.5138 16.212 51.9858 15.228C51.4698 14.232 51.2118 13.032 51.2118 11.628C51.2118 10.272 51.4578 9.096 51.9498 8.1C52.4538 7.092 53.1678 6.312 54.0918 5.76C55.0158 5.208 56.1018 4.932 57.3498 4.932C59.0658 4.932 60.3978 5.352 61.3458 6.192C62.3058 7.032 62.9238 8.238 63.1998 9.81L59.9418 9.936C59.8098 9.168 59.5218 8.568 59.0778 8.136C58.6338 7.704 58.0578 7.488 57.3498 7.488C56.7258 7.488 56.1918 7.662 55.7478 8.01C55.3158 8.358 54.9858 8.844 54.7578 9.468C54.5418 10.092 54.4338 10.812 54.4338 11.628C54.4338 12.468 54.5478 13.194 54.7758 13.806C55.0158 14.418 55.3518 14.892 55.7838 15.228C56.2158 15.564 56.7318 15.732 57.3318 15.732C58.1118 15.732 58.7118 15.504 59.1318 15.048C59.5638 14.58 59.8398 13.938 59.9598 13.122L63.2358 13.248C63.0558 14.316 62.7138 15.228 62.2098 15.984C61.7058 16.728 61.0458 17.298 60.2298 17.694C59.4138 18.09 58.4358 18.288 57.2958 18.288ZM75.9999 19.062L75.0279 17.874C74.7639 18.006 74.4339 18.108 74.0379 18.18C73.6419 18.252 73.2039 18.288 72.7239 18.288C71.4519 18.288 70.3419 18.012 69.3939 17.46C68.4459 16.896 67.7139 16.11 67.1979 15.102C66.6819 14.094 66.4239 12.936 66.4239 11.628C66.4239 10.356 66.6639 9.216 67.1439 8.208C67.6239 7.2 68.3319 6.402 69.2679 5.814C70.2159 5.226 71.3679 4.932 72.7239 4.932C74.0799 4.932 75.2259 5.226 76.1619 5.814C77.0979 6.402 77.8059 7.2 78.2859 8.208C78.7659 9.216 79.0059 10.356 79.0059 11.628C79.0059 12.816 78.8079 13.848 78.4119 14.724C78.0159 15.588 77.4579 16.32 76.7379 16.92L78.4659 19.062H75.9999ZM72.7239 15.732C72.8559 15.732 72.9759 15.726 73.0839 15.714C73.1919 15.69 73.2939 15.66 73.3899 15.624L71.6439 13.5H74.1099L74.9019 14.544C75.1779 14.244 75.3939 13.866 75.5499 13.41C75.7059 12.942 75.7839 12.348 75.7839 11.628C75.7839 10.896 75.6759 10.218 75.4599 9.594C75.2559 8.97 74.9259 8.466 74.4699 8.082C74.0259 7.686 73.4439 7.488 72.7239 7.488C71.9919 7.488 71.3979 7.686 70.9419 8.082C70.4979 8.466 70.1679 8.97 69.9519 9.594C69.7479 10.218 69.6459 10.896 69.6459 11.628C69.6459 12.348 69.7539 13.02 69.9699 13.644C70.1859 14.268 70.5159 14.772 70.9599 15.156C71.4159 15.54 72.0039 15.732 72.7239 15.732ZM87.9204 18.288C86.8164 18.288 85.8564 18.09 85.0404 17.694C84.2364 17.286 83.6124 16.71 83.1684 15.966C82.7244 15.222 82.5024 14.346 82.5024 13.338V5.202H85.6344V13.338C85.6344 14.094 85.8264 14.682 86.2104 15.102C86.6064 15.522 87.1764 15.732 87.9204 15.732C88.6644 15.732 89.2284 15.522 89.6124 15.102C90.0084 14.682 90.2064 14.094 90.2064 13.338V5.202H93.3384V13.338C93.3384 14.346 93.1164 15.222 92.6724 15.966C92.2284 16.71 91.5984 17.286 90.7824 17.694C89.9784 18.09 89.0244 18.288 87.9204 18.288ZM97.5803 18V5.22H100.712V18H97.5803ZM104.742 18V5.22H110.592C111.54 5.22 112.362 5.376 113.058 5.688C113.766 6 114.312 6.444 114.696 7.02C115.08 7.584 115.272 8.25 115.272 9.018C115.272 9.618 115.152 10.146 114.912 10.602C114.672 11.058 114.336 11.436 113.904 11.736C113.484 12.024 112.98 12.216 112.392 12.312L112.338 12.132C113.214 12.132 113.874 12.318 114.318 12.69C114.774 13.062 115.026 13.62 115.074 14.364L115.38 18H112.176L111.978 14.886C111.942 14.406 111.798 14.052 111.546 13.824C111.306 13.596 110.88 13.482 110.268 13.482H107.874V18H104.742ZM107.874 10.926H110.106C110.742 10.926 111.228 10.788 111.564 10.512C111.9 10.236 112.068 9.846 112.068 9.342C112.068 8.826 111.894 8.436 111.546 8.172C111.21 7.908 110.718 7.776 110.07 7.776H107.874V10.926ZM119.251 18V5.22H128.431V7.776H122.383V10.314H128.215V12.87H122.383V15.444H128.575V18H119.251ZM132.353 18V5.22H136.907C139.019 5.22 140.639 5.778 141.767 6.894C142.907 7.998 143.477 9.576 143.477 11.628C143.477 13.668 142.919 15.24 141.803 16.344C140.687 17.448 139.091 18 137.015 18H132.353ZM135.485 15.444H136.907C138.059 15.444 138.905 15.132 139.445 14.508C139.985 13.884 140.255 12.918 140.255 11.61C140.255 10.302 139.985 9.336 139.445 8.712C138.905 8.088 138.059 7.776 136.907 7.776H135.485V15.444ZM153.328 18V5.22H157.918C159.454 5.22 160.612 5.496 161.392 6.048C162.172 6.6 162.562 7.476 162.562 8.676C162.562 9.216 162.448 9.69 162.22 10.098C161.992 10.506 161.656 10.83 161.212 11.07C160.78 11.298 160.264 11.418 159.664 11.43L159.646 11.358C160.738 11.382 161.584 11.682 162.184 12.258C162.796 12.822 163.102 13.566 163.102 14.49C163.102 15.654 162.712 16.53 161.932 17.118C161.152 17.706 160.042 18 158.602 18H153.328ZM155.272 16.254H158.548C159.352 16.254 159.976 16.092 160.42 15.768C160.876 15.432 161.104 14.946 161.104 14.31C161.104 13.686 160.876 13.2 160.42 12.852C159.976 12.504 159.352 12.33 158.548 12.33H155.272V16.254ZM155.272 10.674H157.882C158.734 10.674 159.394 10.512 159.862 10.188C160.33 9.864 160.564 9.408 160.564 8.82C160.564 8.196 160.336 7.734 159.88 7.434C159.436 7.122 158.77 6.966 157.882 6.966H155.272V10.674ZM171.194 18.216C170.282 18.216 169.484 18.012 168.8 17.604C168.116 17.196 167.588 16.614 167.216 15.858C166.844 15.102 166.658 14.22 166.658 13.212C166.658 12.192 166.844 11.31 167.216 10.566C167.588 9.822 168.116 9.246 168.8 8.838C169.484 8.418 170.282 8.208 171.194 8.208C172.106 8.208 172.904 8.418 173.588 8.838C174.272 9.246 174.8 9.822 175.172 10.566C175.544 11.31 175.73 12.192 175.73 13.212C175.73 14.22 175.544 15.102 175.172 15.858C174.8 16.614 174.272 17.196 173.588 17.604C172.904 18.012 172.106 18.216 171.194 18.216ZM171.194 16.56C172.01 16.56 172.64 16.266 173.084 15.678C173.528 15.078 173.75 14.256 173.75 13.212C173.75 12.168 173.528 11.352 173.084 10.764C172.64 10.164 172.01 9.864 171.194 9.864C170.39 9.864 169.76 10.164 169.304 10.764C168.86 11.352 168.638 12.168 168.638 13.212C168.638 14.256 168.86 15.078 169.304 15.678C169.76 16.266 170.39 16.56 171.194 16.56ZM183.401 18.216C182.489 18.216 181.691 18.012 181.007 17.604C180.323 17.196 179.795 16.614 179.423 15.858C179.051 15.102 178.865 14.22 178.865 13.212C178.865 12.192 179.051 11.31 179.423 10.566C179.795 9.822 180.323 9.246 181.007 8.838C181.691 8.418 182.489 8.208 183.401 8.208C184.313 8.208 185.111 8.418 185.795 8.838C186.479 9.246 187.007 9.822 187.379 10.566C187.751 11.31 187.937 12.192 187.937 13.212C187.937 14.22 187.751 15.102 187.379 15.858C187.007 16.614 186.479 17.196 185.795 17.604C185.111 18.012 184.313 18.216 183.401 18.216ZM183.401 16.56C184.217 16.56 184.847 16.266 185.291 15.678C185.735 15.078 185.957 14.256 185.957 13.212C185.957 12.168 185.735 11.352 185.291 10.764C184.847 10.164 184.217 9.864 183.401 9.864C182.597 9.864 181.967 10.164 181.511 10.764C181.067 11.352 180.845 12.168 180.845 13.212C180.845 14.256 181.067 15.078 181.511 15.678C181.967 16.266 182.597 16.56 183.401 16.56ZM191.665 18V5.22H193.573V13.158L197.875 8.424H200.287L196.543 12.456L200.431 18H198.235L195.265 13.644L193.573 15.444V18H191.665ZM207.104 18.216C206.204 18.216 205.442 18.078 204.818 17.802C204.206 17.526 203.732 17.148 203.396 16.668C203.06 16.176 202.868 15.612 202.82 14.976L204.782 14.886C204.878 15.414 205.106 15.834 205.466 16.146C205.826 16.458 206.372 16.614 207.104 16.614C207.704 16.614 208.178 16.518 208.526 16.326C208.874 16.134 209.048 15.828 209.048 15.408C209.048 15.18 208.988 14.988 208.868 14.832C208.76 14.664 208.544 14.526 208.22 14.418C207.896 14.298 207.416 14.184 206.78 14.076C205.832 13.896 205.088 13.686 204.548 13.446C204.008 13.206 203.624 12.9 203.396 12.528C203.168 12.156 203.054 11.706 203.054 11.178C203.054 10.302 203.378 9.588 204.026 9.036C204.686 8.484 205.634 8.208 206.87 8.208C207.698 8.208 208.394 8.352 208.958 8.64C209.522 8.916 209.96 9.294 210.272 9.774C210.596 10.242 210.8 10.77 210.884 11.358L208.922 11.466C208.862 11.13 208.742 10.842 208.562 10.602C208.394 10.35 208.166 10.158 207.878 10.026C207.59 9.882 207.248 9.81 206.852 9.81C206.24 9.81 205.784 9.93 205.484 10.17C205.184 10.41 205.034 10.722 205.034 11.106C205.034 11.394 205.1 11.628 205.232 11.808C205.376 11.988 205.604 12.138 205.916 12.258C206.228 12.366 206.642 12.462 207.158 12.546C208.154 12.714 208.934 12.924 209.498 13.176C210.062 13.416 210.458 13.716 210.686 14.076C210.914 14.436 211.028 14.874 211.028 15.39C211.028 15.99 210.86 16.5 210.524 16.92C210.188 17.34 209.726 17.664 209.138 17.892C208.55 18.108 207.872 18.216 207.104 18.216ZM214.759 18V5.22H216.667V10.584L216.433 10.548C216.541 10.008 216.739 9.57 217.027 9.234C217.315 8.886 217.669 8.628 218.089 8.46C218.509 8.292 218.971 8.208 219.475 8.208C220.171 8.208 220.759 8.364 221.239 8.676C221.719 8.976 222.079 9.402 222.319 9.954C222.571 10.506 222.697 11.136 222.697 11.844V18H220.789V12.348C220.789 11.484 220.639 10.848 220.339 10.44C220.051 10.02 219.595 9.81 218.971 9.81C218.275 9.81 217.717 10.032 217.297 10.476C216.877 10.908 216.667 11.544 216.667 12.384V18H214.759ZM230.925 18.216C229.989 18.216 229.179 18.012 228.495 17.604C227.823 17.196 227.301 16.614 226.929 15.858C226.569 15.102 226.389 14.22 226.389 13.212C226.389 12.204 226.569 11.328 226.929 10.584C227.301 9.828 227.823 9.246 228.495 8.838C229.167 8.418 229.959 8.208 230.871 8.208C231.735 8.208 232.497 8.412 233.157 8.82C233.817 9.216 234.327 9.792 234.687 10.548C235.059 11.304 235.245 12.216 235.245 13.284V13.77H228.369C228.417 14.706 228.663 15.408 229.107 15.876C229.563 16.344 230.175 16.578 230.943 16.578C231.507 16.578 231.975 16.446 232.347 16.182C232.719 15.918 232.977 15.564 233.121 15.12L235.101 15.246C234.849 16.134 234.351 16.854 233.607 17.406C232.875 17.946 231.981 18.216 230.925 18.216ZM228.369 12.33H233.229C233.169 11.478 232.923 10.848 232.491 10.44C232.071 10.032 231.531 9.828 230.871 9.828C230.187 9.828 229.623 10.044 229.179 10.476C228.747 10.896 228.477 11.514 228.369 12.33ZM241.154 18C240.53 18 240.026 17.838 239.642 17.514C239.258 17.19 239.066 16.674 239.066 15.966V5.22H240.974V15.786C240.974 16.002 241.028 16.164 241.136 16.272C241.256 16.38 241.424 16.434 241.64 16.434H242.396V18H241.154ZM246.373 18V7.812C246.373 7.02 246.595 6.39 247.039 5.922C247.483 5.454 248.179 5.22 249.127 5.22H250.819V6.786H249.379C249.007 6.786 248.731 6.888 248.551 7.092C248.371 7.284 248.281 7.56 248.281 7.92V18H246.373ZM245.041 10.098V8.55H250.675V10.098H245.041Z" fill="black"/>
</svg>
