<svg width="113" height="12" viewBox="0 0 113 12" fill="none" xmlns="http://www.w3.org/2000/svg">
<path opacity="0.5" d="M17.144 9L19.192 3.32H20.808L22.856 9H21.424L21.056 7.928H18.944L18.568 9H17.144ZM19.32 6.824H20.68L20.008 4.824L19.32 6.824ZM26.4648 9.128C25.9421 9.128 25.4755 9.01067 25.0648 8.776C24.6595 8.54133 24.3395 8.20533 24.1048 7.768C23.8755 7.32533 23.7608 6.792 23.7608 6.168C23.7608 5.56533 23.8701 5.04267 24.0888 4.6C24.3128 4.152 24.6301 3.80533 25.0408 3.56C25.4515 3.31467 25.9341 3.192 26.4888 3.192C27.2515 3.192 27.8435 3.37867 28.2648 3.752C28.6915 4.12533 28.9661 4.66133 29.0888 5.36L27.6408 5.416C27.5821 5.07467 27.4541 4.808 27.2568 4.616C27.0595 4.424 26.8035 4.328 26.4888 4.328C26.2115 4.328 25.9741 4.40533 25.7768 4.56C25.5848 4.71467 25.4381 4.93067 25.3368 5.208C25.2408 5.48533 25.1928 5.80533 25.1928 6.168C25.1928 6.54133 25.2435 6.864 25.3448 7.136C25.4515 7.408 25.6008 7.61867 25.7928 7.768C25.9848 7.91733 26.2141 7.992 26.4808 7.992C26.8275 7.992 27.0941 7.89067 27.2808 7.688C27.4728 7.48 27.5955 7.19467 27.6488 6.832L29.1048 6.888C29.0248 7.36267 28.8728 7.768 28.6488 8.104C28.4248 8.43467 28.1315 8.688 27.7688 8.864C27.4061 9.04 26.9715 9.128 26.4648 9.128ZM34.7778 9.472L34.3458 8.944C34.2284 9.00267 34.0818 9.048 33.9058 9.08C33.7298 9.112 33.5351 9.128 33.3218 9.128C32.7564 9.128 32.2631 9.00533 31.8418 8.76C31.4204 8.50933 31.0951 8.16 30.8658 7.712C30.6364 7.264 30.5218 6.74933 30.5218 6.168C30.5218 5.60267 30.6284 5.096 30.8418 4.648C31.0551 4.2 31.3698 3.84533 31.7858 3.584C32.2071 3.32267 32.7191 3.192 33.3218 3.192C33.9244 3.192 34.4338 3.32267 34.8498 3.584C35.2658 3.84533 35.5804 4.2 35.7938 4.648C36.0071 5.096 36.1138 5.60267 36.1138 6.168C36.1138 6.696 36.0258 7.15467 35.8498 7.544C35.6738 7.928 35.4258 8.25333 35.1058 8.52L35.8738 9.472H34.7778ZM33.3218 7.992C33.3804 7.992 33.4338 7.98933 33.4818 7.984C33.5298 7.97333 33.5751 7.96 33.6178 7.944L32.8418 7H33.9378L34.2898 7.464C34.4124 7.33067 34.5084 7.16267 34.5778 6.96C34.6471 6.752 34.6818 6.488 34.6818 6.168C34.6818 5.84267 34.6338 5.54133 34.5378 5.264C34.4471 4.98667 34.3004 4.76267 34.0978 4.592C33.9004 4.416 33.6418 4.328 33.3218 4.328C32.9964 4.328 32.7324 4.416 32.5298 4.592C32.3324 4.76267 32.1858 4.98667 32.0898 5.264C31.9991 5.54133 31.9538 5.84267 31.9538 6.168C31.9538 6.488 32.0018 6.78667 32.0978 7.064C32.1938 7.34133 32.3404 7.56533 32.5378 7.736C32.7404 7.90667 33.0018 7.992 33.3218 7.992ZM40.0757 9.128C39.5851 9.128 39.1584 9.04 38.7957 8.864C38.4384 8.68267 38.1611 8.42667 37.9637 8.096C37.7664 7.76533 37.6677 7.376 37.6677 6.928V3.312H39.0597V6.928C39.0597 7.264 39.1451 7.52533 39.3157 7.712C39.4917 7.89867 39.7451 7.992 40.0757 7.992C40.4064 7.992 40.6571 7.89867 40.8277 7.712C41.0037 7.52533 41.0917 7.264 41.0917 6.928V3.312H42.4837V6.928C42.4837 7.376 42.3851 7.76533 42.1877 8.096C41.9904 8.42667 41.7104 8.68267 41.3477 8.864C40.9904 9.04 40.5664 9.128 40.0757 9.128ZM44.369 9V3.32H45.761V9H44.369ZM47.5518 9V3.32H50.1518C50.5731 3.32 50.9385 3.38933 51.2478 3.528C51.5625 3.66667 51.8051 3.864 51.9758 4.12C52.1465 4.37067 52.2318 4.66667 52.2318 5.008C52.2318 5.27467 52.1785 5.50933 52.0718 5.712C51.9651 5.91467 51.8158 6.08267 51.6238 6.216C51.4371 6.344 51.2131 6.42933 50.9518 6.472L50.9278 6.392C51.3171 6.392 51.6105 6.47467 51.8078 6.64C52.0105 6.80533 52.1225 7.05333 52.1438 7.384L52.2798 9H50.8558L50.7678 7.616C50.7518 7.40267 50.6878 7.24533 50.5758 7.144C50.4691 7.04267 50.2798 6.992 50.0078 6.992H48.9438V9H47.5518ZM48.9438 5.856H49.9358C50.2185 5.856 50.4345 5.79467 50.5838 5.672C50.7331 5.54933 50.8078 5.376 50.8078 5.152C50.8078 4.92267 50.7305 4.74933 50.5758 4.632C50.4265 4.51467 50.2078 4.456 49.9198 4.456H48.9438V5.856ZM54.0002 9V3.32H58.0802V4.456H55.3922V5.584H57.9842V6.72H55.3922V7.864H58.1442V9H54.0002ZM59.8237 9V3.32H61.8477C62.7864 3.32 63.5064 3.568 64.0077 4.064C64.5144 4.55467 64.7677 5.256 64.7677 6.168C64.7677 7.07467 64.5197 7.77333 64.0237 8.264C63.5277 8.75467 62.8184 9 61.8957 9H59.8237ZM61.2157 7.864H61.8477C62.3597 7.864 62.7357 7.72533 62.9757 7.448C63.2157 7.17067 63.3357 6.74133 63.3357 6.16C63.3357 5.57867 63.2157 5.14933 62.9757 4.872C62.7357 4.59467 62.3597 4.456 61.8477 4.456H61.2157V7.864ZM69.1458 9V3.32H71.1858C71.8685 3.32 72.3831 3.44267 72.7298 3.688C73.0765 3.93333 73.2498 4.32267 73.2498 4.856C73.2498 5.096 73.1991 5.30667 73.0978 5.488C72.9965 5.66933 72.8471 5.81333 72.6498 5.92C72.4578 6.02133 72.2285 6.07467 71.9618 6.08L71.9538 6.048C72.4391 6.05867 72.8151 6.192 73.0818 6.448C73.3538 6.69867 73.4898 7.02933 73.4898 7.44C73.4898 7.95733 73.3165 8.34667 72.9698 8.608C72.6231 8.86933 72.1298 9 71.4898 9H69.1458ZM70.0098 8.224H71.4658C71.8231 8.224 72.1005 8.152 72.2978 8.008C72.5005 7.85867 72.6018 7.64267 72.6018 7.36C72.6018 7.08267 72.5005 6.86667 72.2978 6.712C72.1005 6.55733 71.8231 6.48 71.4658 6.48H70.0098V8.224ZM70.0098 5.744H71.1698C71.5485 5.744 71.8418 5.672 72.0498 5.528C72.2578 5.384 72.3618 5.18133 72.3618 4.92C72.3618 4.64267 72.2605 4.43733 72.0578 4.304C71.8605 4.16533 71.5645 4.096 71.1698 4.096H70.0098V5.744ZM77.0864 9.096C76.681 9.096 76.3264 9.00533 76.0224 8.824C75.7184 8.64267 75.4837 8.384 75.3184 8.048C75.153 7.712 75.0704 7.32 75.0704 6.872C75.0704 6.41867 75.153 6.02667 75.3184 5.696C75.4837 5.36533 75.7184 5.10933 76.0224 4.928C76.3264 4.74133 76.681 4.648 77.0864 4.648C77.4917 4.648 77.8464 4.74133 78.1504 4.928C78.4544 5.10933 78.689 5.36533 78.8544 5.696C79.0197 6.02667 79.1024 6.41867 79.1024 6.872C79.1024 7.32 79.0197 7.712 78.8544 8.048C78.689 8.384 78.4544 8.64267 78.1504 8.824C77.8464 9.00533 77.4917 9.096 77.0864 9.096ZM77.0864 8.36C77.449 8.36 77.729 8.22933 77.9264 7.968C78.1237 7.70133 78.2224 7.336 78.2224 6.872C78.2224 6.408 78.1237 6.04533 77.9264 5.784C77.729 5.51733 77.449 5.384 77.0864 5.384C76.729 5.384 76.449 5.51733 76.2464 5.784C76.049 6.04533 75.9504 6.408 75.9504 6.872C75.9504 7.336 76.049 7.70133 76.2464 7.968C76.449 8.22933 76.729 8.36 77.0864 8.36ZM82.5114 9.096C82.106 9.096 81.7514 9.00533 81.4474 8.824C81.1434 8.64267 80.9087 8.384 80.7434 8.048C80.578 7.712 80.4954 7.32 80.4954 6.872C80.4954 6.41867 80.578 6.02667 80.7434 5.696C80.9087 5.36533 81.1434 5.10933 81.4474 4.928C81.7514 4.74133 82.106 4.648 82.5114 4.648C82.9167 4.648 83.2714 4.74133 83.5754 4.928C83.8794 5.10933 84.114 5.36533 84.2794 5.696C84.4447 6.02667 84.5274 6.41867 84.5274 6.872C84.5274 7.32 84.4447 7.712 84.2794 8.048C84.114 8.384 83.8794 8.64267 83.5754 8.824C83.2714 9.00533 82.9167 9.096 82.5114 9.096ZM82.5114 8.36C82.874 8.36 83.154 8.22933 83.3514 7.968C83.5487 7.70133 83.6474 7.336 83.6474 6.872C83.6474 6.408 83.5487 6.04533 83.3514 5.784C83.154 5.51733 82.874 5.384 82.5114 5.384C82.154 5.384 81.874 5.51733 81.6714 5.784C81.474 6.04533 81.3754 6.408 81.3754 6.872C81.3754 7.336 81.474 7.70133 81.6714 7.968C81.874 8.22933 82.154 8.36 82.5114 8.36ZM86.1844 9V3.32H87.0324V6.848L88.9444 4.744H90.0164L88.3524 6.536L90.0804 9H89.1044L87.7844 7.064L87.0324 7.864V9H86.1844ZM93.0463 9.096C92.6463 9.096 92.3076 9.03467 92.0303 8.912C91.7583 8.78933 91.5476 8.62133 91.3983 8.408C91.2489 8.18933 91.1636 7.93867 91.1423 7.656L92.0143 7.616C92.0569 7.85067 92.1583 8.03733 92.3183 8.176C92.4783 8.31467 92.7209 8.384 93.0463 8.384C93.3129 8.384 93.5236 8.34133 93.6783 8.256C93.8329 8.17067 93.9103 8.03467 93.9103 7.848C93.9103 7.74667 93.8836 7.66133 93.8303 7.592C93.7823 7.51733 93.6863 7.456 93.5423 7.408C93.3983 7.35467 93.1849 7.304 92.9023 7.256C92.4809 7.176 92.1503 7.08267 91.9103 6.976C91.6703 6.86933 91.4996 6.73333 91.3983 6.568C91.2969 6.40267 91.2463 6.20267 91.2463 5.968C91.2463 5.57867 91.3903 5.26133 91.6783 5.016C91.9716 4.77067 92.3929 4.648 92.9423 4.648C93.3103 4.648 93.6196 4.712 93.8703 4.84C94.1209 4.96267 94.3156 5.13067 94.4543 5.344C94.5983 5.552 94.6889 5.78667 94.7263 6.048L93.8543 6.096C93.8276 5.94667 93.7743 5.81867 93.6943 5.712C93.6196 5.6 93.5183 5.51467 93.3903 5.456C93.2623 5.392 93.1103 5.36 92.9343 5.36C92.6623 5.36 92.4596 5.41333 92.3263 5.52C92.1929 5.62667 92.1263 5.76533 92.1263 5.936C92.1263 6.064 92.1556 6.168 92.2143 6.248C92.2783 6.328 92.3796 6.39467 92.5183 6.448C92.6569 6.496 92.8409 6.53867 93.0703 6.576C93.5129 6.65067 93.8596 6.744 94.1103 6.856C94.3609 6.96267 94.5369 7.096 94.6383 7.256C94.7396 7.416 94.7903 7.61067 94.7903 7.84C94.7903 8.10667 94.7156 8.33333 94.5663 8.52C94.4169 8.70667 94.2116 8.85067 93.9503 8.952C93.6889 9.048 93.3876 9.096 93.0463 9.096ZM96.4484 9V3.32H97.2964V5.704L97.1924 5.688C97.2404 5.448 97.3284 5.25333 97.4564 5.104C97.5844 4.94933 97.7418 4.83467 97.9284 4.76C98.1151 4.68533 98.3204 4.648 98.5444 4.648C98.8538 4.648 99.1151 4.71733 99.3284 4.856C99.5418 4.98933 99.7018 5.17867 99.8084 5.424C99.9204 5.66933 99.9764 5.94933 99.9764 6.264V9H99.1284V6.488C99.1284 6.104 99.0618 5.82133 98.9284 5.64C98.8004 5.45333 98.5978 5.36 98.3204 5.36C98.0111 5.36 97.7631 5.45867 97.5764 5.656C97.3898 5.848 97.2964 6.13067 97.2964 6.504V9H96.4484ZM103.633 9.096C103.217 9.096 102.857 9.00533 102.553 8.824C102.255 8.64267 102.023 8.384 101.857 8.048C101.697 7.712 101.617 7.32 101.617 6.872C101.617 6.424 101.697 6.03467 101.857 5.704C102.023 5.368 102.255 5.10933 102.553 4.928C102.852 4.74133 103.204 4.648 103.609 4.648C103.993 4.648 104.332 4.73867 104.625 4.92C104.919 5.096 105.145 5.352 105.305 5.688C105.471 6.024 105.553 6.42933 105.553 6.904V7.12H102.497C102.519 7.536 102.628 7.848 102.825 8.056C103.028 8.264 103.3 8.368 103.641 8.368C103.892 8.368 104.1 8.30933 104.265 8.192C104.431 8.07467 104.545 7.91733 104.609 7.72L105.489 7.776C105.377 8.17067 105.156 8.49067 104.825 8.736C104.5 8.976 104.103 9.096 103.633 9.096ZM102.497 6.48H104.657C104.631 6.10133 104.521 5.82133 104.329 5.64C104.143 5.45867 103.903 5.368 103.609 5.368C103.305 5.368 103.055 5.464 102.857 5.656C102.665 5.84267 102.545 6.11733 102.497 6.48ZM108.18 9C107.902 9 107.678 8.928 107.508 8.784C107.337 8.64 107.252 8.41067 107.252 8.096V3.32H108.1V8.016C108.1 8.112 108.124 8.184 108.172 8.232C108.225 8.28 108.3 8.304 108.396 8.304H108.732V9H108.18ZM110.499 9V4.472C110.499 4.12 110.598 3.84 110.795 3.632C110.993 3.424 111.302 3.32 111.723 3.32H112.475V4.016H111.835C111.67 4.016 111.547 4.06133 111.467 4.152C111.387 4.23733 111.347 4.36 111.347 4.52V9H110.499ZM109.907 5.488V4.8H112.411V5.488H109.907Z" fill="black"/>
<g opacity="0.5">
<path d="M4.5 1.5V9H6V1.5H4.5ZM6 2.5L8 9L9.5 8.5L7.5 2L6 2.5ZM2.5 2.5V9H4V2.5H2.5ZM1.5 9.5V10.5H10.5V9.5H1.5Z" fill="black"/>
</g>
</svg>
