<svg width="24" height="24" viewBox="0 0 24 24" fill="none" xmlns="http://www.w3.org/2000/svg">
<g clip-path="url(#clip0_47_15)">
<path d="M14.349 17.193C14.3106 18.6989 14.1537 20.1864 13.6746 21.6233C13.4499 22.2974 13.149 22.9344 12.6166 23.4316C11.9994 24.008 11.4868 24.0136 10.8659 23.417C10.2059 22.7828 9.89161 21.9517 9.66318 21.0961C9.22279 19.4466 9.10302 17.7536 9.13404 16.056C9.15994 14.6375 10.352 13.5076 11.7359 13.4992C13.0889 13.4909 14.2247 14.5346 14.3435 15.9226C14.3794 16.3431 14.349 16.7693 14.349 17.193Z" fill="black"/>
<path d="M9.11557 10.1178C9.10857 8.62834 10.3492 7.421 11.8708 7.43667C13.1962 7.45035 14.3879 8.69124 14.4015 10.0717C14.4157 11.5162 13.202 12.7361 11.7471 12.7396C10.3128 12.743 9.1223 11.5569 9.11557 10.1178Z" fill="black"/>
<path d="M22.5911 9.66893C22.0455 4.06409 16.989 -0.242838 11.2383 0.0106376C5.56271 0.260828 0.98437 5.06221 1.00004 10.8045C1.0156 16.5144 5.24084 20.2525 8.42827 21.0485C8.32816 20.5621 8.24485 20.0735 8.17711 19.5831C8.05115 19.4197 7.86773 19.2892 7.61593 19.1683C4.04465 17.4532 1.93602 13.3568 2.55956 9.45794C3.41692 4.09716 8.38142 0.656362 13.7467 1.70451C18.7112 2.67437 22.0749 7.83887 20.9486 12.7688C20.2507 15.8237 18.4746 18.0194 15.6585 19.3828C15.5494 19.4356 15.4116 19.4531 15.3311 19.5489C15.2621 20.0799 15.1744 20.6079 15.0637 21.1323C18.7383 20.1924 23.2044 15.9698 22.5911 9.66893Z" fill="black"/>
<path d="M18.6364 9.28173C17.8378 5.95149 14.8261 3.71986 11.3136 3.82563C8.12003 3.9218 5.26481 6.43496 4.67121 9.65578C4.04433 13.057 6.0989 16.0197 7.94668 16.8994C7.92358 16.302 7.91717 15.7034 7.92433 15.1042C7.89644 15.0623 7.86165 15.0209 7.8182 14.9781C6.75427 13.931 6.19923 12.6577 6.09815 11.1655C5.85533 7.58102 9.3601 4.55993 12.8605 5.35978C15.0362 5.85693 16.5313 7.15118 17.1554 9.29928C17.79 11.4838 17.2383 13.4094 15.6086 15.0131C15.5953 15.0262 15.5805 15.0386 15.5652 15.051C15.5785 15.5342 15.552 16.0209 15.552 16.5052C15.5486 16.6376 15.5445 16.7698 15.5398 16.9019C17.681 15.7415 19.4333 12.6052 18.6364 9.28173Z" fill="black"/>
</g>
<defs>
<clipPath id="clip0_47_15">
<rect width="24" height="24" fill="white"/>
</clipPath>
</defs>
</svg>
