<svg width="24" height="24" viewBox="0 0 24 24" fill="none" xmlns="http://www.w3.org/2000/svg">
<g clip-path="url(#clip0_47_10)">
<g clip-path="url(#clip1_47_10)">
<path d="M11.9994 0.0395508C5.39243 0.0395508 0.0361481 5.39569 0.0361481 12.0027C0.0361481 18.61 5.39243 23.9657 11.9994 23.9657C18.6071 23.9657 23.9629 18.61 23.9629 12.0027C23.9629 5.39612 18.6071 0.0401222 11.9993 0.0401222L11.9994 0.0395508ZM17.4857 17.2938C17.2714 17.6453 16.8114 17.7567 16.46 17.541C13.6511 15.8253 10.1151 15.4367 5.95086 16.3881C5.54958 16.4796 5.14958 16.2281 5.05815 15.8267C4.96629 15.4253 5.21672 15.0253 5.61901 14.9338C10.1761 13.8923 14.0851 14.341 17.2386 16.2681C17.59 16.4838 17.7014 16.9424 17.4857 17.2938ZM18.95 14.036C18.68 14.4753 18.1057 14.6138 17.6671 14.3438C14.4514 12.3668 9.54958 11.7944 5.74601 12.949C5.25272 13.098 4.73172 12.82 4.58201 12.3276C4.43343 11.8343 4.71158 11.3143 5.20401 11.1643C9.54872 9.84598 14.95 10.4846 18.6429 12.7538C19.0814 13.0238 19.22 13.598 18.95 14.036ZM19.0757 10.644C15.22 8.35384 8.85858 8.14326 5.17729 9.26055C4.58615 9.43984 3.961 9.10612 3.78186 8.51498C3.60272 7.92355 3.93615 7.29884 4.52772 7.11912C8.75358 5.83627 15.7786 6.08412 20.2177 8.71941C20.7506 9.03498 20.9249 9.72169 20.6091 10.2527C20.2949 10.7844 19.6063 10.9597 19.0763 10.644H19.0757Z" fill="black"/>
</g>
</g>
<defs>
<clipPath id="clip0_47_10">
<rect width="24" height="24" fill="white"/>
</clipPath>
<clipPath id="clip1_47_10">
<rect width="24" height="24" fill="white"/>
</clipPath>
</defs>
</svg>
