<svg width="24" height="24" viewBox="0 0 24 24" fill="none" xmlns="http://www.w3.org/2000/svg">
<g clip-path="url(#clip0_47_13)">
<path d="M22.4838 17.11C22.2544 18.3 21.2793 19.2067 20.0748 19.3767C18.182 19.66 15.0274 20 11.4713 20C7.97257 20 4.81796 19.66 2.86783 19.3767C1.66334 19.2067 0.688279 18.3 0.458853 17.11C0.229427 15.8067 0 13.88 0 11.5C0 9.12 0.229427 7.19333 0.458853 5.89C0.688279 4.7 1.66334 3.79333 2.86783 3.62333C4.7606 3.34 7.91521 3 11.4713 3C15.0274 3 18.1247 3.34 20.0748 3.62333C21.2793 3.79333 22.2544 4.7 22.4838 5.89C22.7132 7.19333 23 9.12 23 11.5C22.9426 13.88 22.7132 15.8067 22.4838 17.11Z" fill="black"/>
<path d="M9 15V7L16 11L9 15Z" fill="#B5B8B6"/>
</g>
<defs>
<clipPath id="clip0_47_13">
<rect width="24" height="24" fill="white"/>
</clipPath>
</defs>
</svg>
